<mxfile host="app.diagrams.net" modified="2022-08-25T05:07:09.687Z" agent="5.0 (Macintosh; Intel Mac OS X 10_15_7) AppleWebKit/537.36 (KHTML, like Gecko) Chrome/104.0.0.0 Safari/537.36" etag="ecdo5Sk1f3NerUBhHjj-" version="20.2.7" type="github">
  <diagram id="kHThhnsUB1xys9CKkgDm" name="Page-1">
    <mxGraphModel dx="1493" dy="1244" grid="1" gridSize="10" guides="1" tooltips="1" connect="1" arrows="1" fold="1" page="1" pageScale="1" pageWidth="850" pageHeight="1100" math="0" shadow="0">
      <root>
        <mxCell id="0" />
        <mxCell id="1" parent="0" />
        <mxCell id="Ug6Q32tk084S-WFXiYjM-1" value="AWS Cloud" style="points=[[0,0],[0.25,0],[0.5,0],[0.75,0],[1,0],[1,0.25],[1,0.5],[1,0.75],[1,1],[0.75,1],[0.5,1],[0.25,1],[0,1],[0,0.75],[0,0.5],[0,0.25]];outlineConnect=0;gradientColor=none;html=1;whiteSpace=wrap;fontSize=12;fontStyle=0;container=1;pointerEvents=0;collapsible=0;recursiveResize=0;shape=mxgraph.aws4.group;grIcon=mxgraph.aws4.group_aws_cloud_alt;strokeColor=#232F3E;fillColor=none;verticalAlign=top;align=left;spacingLeft=30;fontColor=#232F3E;dashed=0;flipH=0;" parent="1" vertex="1">
          <mxGeometry x="45" y="190" width="760" height="720" as="geometry" />
        </mxCell>
        <mxCell id="Ug6Q32tk084S-WFXiYjM-2" value="VPC" style="points=[[0,0],[0.25,0],[0.5,0],[0.75,0],[1,0],[1,0.25],[1,0.5],[1,0.75],[1,1],[0.75,1],[0.5,1],[0.25,1],[0,1],[0,0.75],[0,0.5],[0,0.25]];outlineConnect=0;gradientColor=none;html=1;whiteSpace=wrap;fontSize=12;fontStyle=0;container=1;pointerEvents=0;collapsible=0;recursiveResize=0;shape=mxgraph.aws4.group;grIcon=mxgraph.aws4.group_vpc;strokeColor=#248814;fillColor=none;verticalAlign=top;align=left;spacingLeft=30;fontColor=#AAB7B8;dashed=0;" parent="Ug6Q32tk084S-WFXiYjM-1" vertex="1">
          <mxGeometry x="40" y="40" width="680" height="640" as="geometry" />
        </mxCell>
        <mxCell id="Ug6Q32tk084S-WFXiYjM-10" value="Private subnet" style="points=[[0,0],[0.25,0],[0.5,0],[0.75,0],[1,0],[1,0.25],[1,0.5],[1,0.75],[1,1],[0.75,1],[0.5,1],[0.25,1],[0,1],[0,0.75],[0,0.5],[0,0.25]];outlineConnect=0;gradientColor=none;html=1;whiteSpace=wrap;fontSize=12;fontStyle=0;container=1;pointerEvents=0;collapsible=0;recursiveResize=0;shape=mxgraph.aws4.group;grIcon=mxgraph.aws4.group_security_group;grStroke=0;strokeColor=#147EBA;fillColor=#E6F2F8;verticalAlign=top;align=left;spacingLeft=30;fontColor=#147EBA;dashed=0;" parent="Ug6Q32tk084S-WFXiYjM-2" vertex="1">
          <mxGeometry x="360" y="360" width="280" height="200" as="geometry" />
        </mxCell>
        <mxCell id="Ug6Q32tk084S-WFXiYjM-11" value="Public subnet" style="points=[[0,0],[0.25,0],[0.5,0],[0.75,0],[1,0],[1,0.25],[1,0.5],[1,0.75],[1,1],[0.75,1],[0.5,1],[0.25,1],[0,1],[0,0.75],[0,0.5],[0,0.25]];outlineConnect=0;gradientColor=none;html=1;whiteSpace=wrap;fontSize=12;fontStyle=0;container=1;pointerEvents=0;collapsible=0;recursiveResize=0;shape=mxgraph.aws4.group;grIcon=mxgraph.aws4.group_security_group;grStroke=0;strokeColor=#248814;fillColor=#E9F3E6;verticalAlign=top;align=left;spacingLeft=30;fontColor=#248814;dashed=0;" parent="Ug6Q32tk084S-WFXiYjM-2" vertex="1">
          <mxGeometry x="360" y="90" width="280" height="200" as="geometry" />
        </mxCell>
        <mxCell id="ERtdlUXtCrWB-qyEB8RA-2" value="Availability Zone 2" style="fillColor=none;strokeColor=#147EBA;verticalAlign=top;fontStyle=0;fontColor=#147EBA;" vertex="1" parent="Ug6Q32tk084S-WFXiYjM-2">
          <mxGeometry x="345" y="60" width="310" height="520" as="geometry" />
        </mxCell>
        <mxCell id="ERtdlUXtCrWB-qyEB8RA-4" value="Private subnet" style="points=[[0,0],[0.25,0],[0.5,0],[0.75,0],[1,0],[1,0.25],[1,0.5],[1,0.75],[1,1],[0.75,1],[0.5,1],[0.25,1],[0,1],[0,0.75],[0,0.5],[0,0.25]];outlineConnect=0;gradientColor=none;html=1;whiteSpace=wrap;fontSize=12;fontStyle=0;container=1;pointerEvents=0;collapsible=0;recursiveResize=0;shape=mxgraph.aws4.group;grIcon=mxgraph.aws4.group_security_group;grStroke=0;strokeColor=#147EBA;fillColor=#E6F2F8;verticalAlign=top;align=left;spacingLeft=30;fontColor=#147EBA;dashed=0;" vertex="1" parent="Ug6Q32tk084S-WFXiYjM-2">
          <mxGeometry x="35" y="360" width="280" height="200" as="geometry" />
        </mxCell>
        <mxCell id="ERtdlUXtCrWB-qyEB8RA-5" value="Public subnet" style="points=[[0,0],[0.25,0],[0.5,0],[0.75,0],[1,0],[1,0.25],[1,0.5],[1,0.75],[1,1],[0.75,1],[0.5,1],[0.25,1],[0,1],[0,0.75],[0,0.5],[0,0.25]];outlineConnect=0;gradientColor=none;html=1;whiteSpace=wrap;fontSize=12;fontStyle=0;container=1;pointerEvents=0;collapsible=0;recursiveResize=0;shape=mxgraph.aws4.group;grIcon=mxgraph.aws4.group_security_group;grStroke=0;strokeColor=#248814;fillColor=#E9F3E6;verticalAlign=top;align=left;spacingLeft=30;fontColor=#248814;dashed=0;" vertex="1" parent="Ug6Q32tk084S-WFXiYjM-2">
          <mxGeometry x="35" y="90" width="280" height="200" as="geometry" />
        </mxCell>
        <mxCell id="ERtdlUXtCrWB-qyEB8RA-6" value="Availability Zone 1" style="fillColor=none;strokeColor=#147EBA;verticalAlign=top;fontStyle=0;fontColor=#147EBA;dashed=1;" vertex="1" parent="Ug6Q32tk084S-WFXiYjM-2">
          <mxGeometry x="20" y="60" width="310" height="520" as="geometry" />
        </mxCell>
        <mxCell id="ERtdlUXtCrWB-qyEB8RA-32" value="" style="edgeStyle=orthogonalEdgeStyle;rounded=0;orthogonalLoop=1;jettySize=auto;html=1;targetPerimeterSpacing=0;dashed=1;" edge="1" parent="Ug6Q32tk084S-WFXiYjM-2" source="ERtdlUXtCrWB-qyEB8RA-7" target="ERtdlUXtCrWB-qyEB8RA-22">
          <mxGeometry relative="1" as="geometry">
            <Array as="points">
              <mxPoint x="285" y="25" />
            </Array>
          </mxGeometry>
        </mxCell>
        <mxCell id="ERtdlUXtCrWB-qyEB8RA-35" style="edgeStyle=orthogonalEdgeStyle;rounded=0;orthogonalLoop=1;jettySize=auto;html=1;entryX=0.5;entryY=0;entryDx=0;entryDy=0;entryPerimeter=0;targetPerimeterSpacing=0;" edge="1" parent="Ug6Q32tk084S-WFXiYjM-2" source="ERtdlUXtCrWB-qyEB8RA-7" target="ERtdlUXtCrWB-qyEB8RA-13">
          <mxGeometry relative="1" as="geometry" />
        </mxCell>
        <mxCell id="ERtdlUXtCrWB-qyEB8RA-7" value="Route table" style="sketch=0;outlineConnect=0;fontColor=#232F3E;gradientColor=none;strokeColor=#232F3E;fillColor=#ffffff;dashed=0;verticalLabelPosition=bottom;verticalAlign=top;align=center;html=1;fontSize=12;fontStyle=0;aspect=fixed;shape=mxgraph.aws4.resourceIcon;resIcon=mxgraph.aws4.route_table;" vertex="1" parent="Ug6Q32tk084S-WFXiYjM-2">
          <mxGeometry x="255" y="90" width="60" height="60" as="geometry" />
        </mxCell>
        <mxCell id="ERtdlUXtCrWB-qyEB8RA-33" style="edgeStyle=orthogonalEdgeStyle;rounded=0;orthogonalLoop=1;jettySize=auto;html=1;entryX=1;entryY=0.5;entryDx=0;entryDy=0;entryPerimeter=0;dashed=1;targetPerimeterSpacing=0;" edge="1" parent="Ug6Q32tk084S-WFXiYjM-2" source="ERtdlUXtCrWB-qyEB8RA-8" target="ERtdlUXtCrWB-qyEB8RA-22">
          <mxGeometry relative="1" as="geometry">
            <Array as="points">
              <mxPoint x="610" y="25" />
            </Array>
          </mxGeometry>
        </mxCell>
        <mxCell id="ERtdlUXtCrWB-qyEB8RA-38" style="edgeStyle=orthogonalEdgeStyle;rounded=0;orthogonalLoop=1;jettySize=auto;html=1;entryX=1;entryY=0.5;entryDx=0;entryDy=0;targetPerimeterSpacing=0;" edge="1" parent="Ug6Q32tk084S-WFXiYjM-2" source="ERtdlUXtCrWB-qyEB8RA-8" target="ERtdlUXtCrWB-qyEB8RA-24">
          <mxGeometry relative="1" as="geometry">
            <Array as="points">
              <mxPoint x="500" y="120" />
              <mxPoint x="500" y="190" />
            </Array>
          </mxGeometry>
        </mxCell>
        <mxCell id="ERtdlUXtCrWB-qyEB8RA-39" style="edgeStyle=orthogonalEdgeStyle;rounded=0;orthogonalLoop=1;jettySize=auto;html=1;targetPerimeterSpacing=0;" edge="1" parent="Ug6Q32tk084S-WFXiYjM-2" source="ERtdlUXtCrWB-qyEB8RA-8" target="ERtdlUXtCrWB-qyEB8RA-16">
          <mxGeometry relative="1" as="geometry" />
        </mxCell>
        <mxCell id="ERtdlUXtCrWB-qyEB8RA-8" value="Route table" style="sketch=0;outlineConnect=0;fontColor=#232F3E;gradientColor=none;strokeColor=#232F3E;fillColor=#ffffff;dashed=0;verticalLabelPosition=bottom;verticalAlign=top;align=center;html=1;fontSize=12;fontStyle=0;aspect=fixed;shape=mxgraph.aws4.resourceIcon;resIcon=mxgraph.aws4.route_table;" vertex="1" parent="Ug6Q32tk084S-WFXiYjM-2">
          <mxGeometry x="580" y="90" width="60" height="60" as="geometry" />
        </mxCell>
        <mxCell id="ERtdlUXtCrWB-qyEB8RA-42" style="edgeStyle=orthogonalEdgeStyle;rounded=0;orthogonalLoop=1;jettySize=auto;html=1;entryX=1;entryY=0.5;entryDx=0;entryDy=0;entryPerimeter=0;targetPerimeterSpacing=0;dashed=1;" edge="1" parent="Ug6Q32tk084S-WFXiYjM-2" source="ERtdlUXtCrWB-qyEB8RA-10" target="ERtdlUXtCrWB-qyEB8RA-13">
          <mxGeometry relative="1" as="geometry">
            <Array as="points">
              <mxPoint x="285" y="246" />
            </Array>
          </mxGeometry>
        </mxCell>
        <mxCell id="ERtdlUXtCrWB-qyEB8RA-10" value="Route table" style="sketch=0;outlineConnect=0;fontColor=#232F3E;gradientColor=none;strokeColor=#232F3E;fillColor=#ffffff;dashed=0;verticalLabelPosition=bottom;verticalAlign=top;align=center;html=1;fontSize=12;fontStyle=0;aspect=fixed;shape=mxgraph.aws4.resourceIcon;resIcon=mxgraph.aws4.route_table;" vertex="1" parent="Ug6Q32tk084S-WFXiYjM-2">
          <mxGeometry x="255" y="360" width="60" height="60" as="geometry" />
        </mxCell>
        <mxCell id="ERtdlUXtCrWB-qyEB8RA-40" style="edgeStyle=orthogonalEdgeStyle;rounded=0;orthogonalLoop=1;jettySize=auto;html=1;entryX=1;entryY=0.5;entryDx=0;entryDy=0;entryPerimeter=0;targetPerimeterSpacing=0;dashed=1;" edge="1" parent="Ug6Q32tk084S-WFXiYjM-2" source="ERtdlUXtCrWB-qyEB8RA-9" target="ERtdlUXtCrWB-qyEB8RA-16">
          <mxGeometry relative="1" as="geometry">
            <Array as="points">
              <mxPoint x="610" y="246" />
            </Array>
          </mxGeometry>
        </mxCell>
        <mxCell id="ERtdlUXtCrWB-qyEB8RA-50" style="edgeStyle=orthogonalEdgeStyle;rounded=0;orthogonalLoop=1;jettySize=auto;html=1;targetPerimeterSpacing=0;" edge="1" parent="Ug6Q32tk084S-WFXiYjM-2" source="ERtdlUXtCrWB-qyEB8RA-9" target="ERtdlUXtCrWB-qyEB8RA-19">
          <mxGeometry relative="1" as="geometry" />
        </mxCell>
        <mxCell id="ERtdlUXtCrWB-qyEB8RA-9" value="Route table" style="sketch=0;outlineConnect=0;fontColor=#232F3E;gradientColor=none;strokeColor=#232F3E;fillColor=#ffffff;dashed=0;verticalLabelPosition=bottom;verticalAlign=top;align=center;html=1;fontSize=12;fontStyle=0;aspect=fixed;shape=mxgraph.aws4.resourceIcon;resIcon=mxgraph.aws4.route_table;" vertex="1" parent="Ug6Q32tk084S-WFXiYjM-2">
          <mxGeometry x="580" y="360" width="60" height="60" as="geometry" />
        </mxCell>
        <mxCell id="ERtdlUXtCrWB-qyEB8RA-26" style="edgeStyle=orthogonalEdgeStyle;rounded=0;orthogonalLoop=1;jettySize=auto;html=1;exitX=0.5;exitY=0;exitDx=0;exitDy=0;exitPerimeter=0;" edge="1" parent="Ug6Q32tk084S-WFXiYjM-2" source="ERtdlUXtCrWB-qyEB8RA-13" target="ERtdlUXtCrWB-qyEB8RA-7">
          <mxGeometry relative="1" as="geometry">
            <Array as="points">
              <mxPoint x="175" y="120" />
            </Array>
          </mxGeometry>
        </mxCell>
        <mxCell id="ERtdlUXtCrWB-qyEB8RA-45" style="edgeStyle=orthogonalEdgeStyle;rounded=0;orthogonalLoop=1;jettySize=auto;html=1;dashed=1;targetPerimeterSpacing=0;" edge="1" parent="Ug6Q32tk084S-WFXiYjM-2" source="ERtdlUXtCrWB-qyEB8RA-13" target="ERtdlUXtCrWB-qyEB8RA-10">
          <mxGeometry relative="1" as="geometry" />
        </mxCell>
        <mxCell id="ERtdlUXtCrWB-qyEB8RA-13" value="VPC NAT&lt;br&gt;Gateway" style="outlineConnect=0;dashed=0;verticalLabelPosition=bottom;verticalAlign=top;align=center;html=1;shape=mxgraph.aws3.vpc_nat_gateway;fillColor=#F58534;gradientColor=none;" vertex="1" parent="Ug6Q32tk084S-WFXiYjM-2">
          <mxGeometry x="150.25" y="220" width="49.5" height="52" as="geometry" />
        </mxCell>
        <mxCell id="ERtdlUXtCrWB-qyEB8RA-16" value="VPC NAT&lt;br&gt;Gateway" style="outlineConnect=0;dashed=0;verticalLabelPosition=bottom;verticalAlign=top;align=center;html=1;shape=mxgraph.aws3.vpc_nat_gateway;fillColor=#F58534;gradientColor=none;" vertex="1" parent="Ug6Q32tk084S-WFXiYjM-2">
          <mxGeometry x="475.25" y="220" width="49.5" height="52" as="geometry" />
        </mxCell>
        <mxCell id="ERtdlUXtCrWB-qyEB8RA-47" style="edgeStyle=orthogonalEdgeStyle;rounded=0;orthogonalLoop=1;jettySize=auto;html=1;targetPerimeterSpacing=0;" edge="1" parent="Ug6Q32tk084S-WFXiYjM-2" source="ERtdlUXtCrWB-qyEB8RA-18" target="ERtdlUXtCrWB-qyEB8RA-10">
          <mxGeometry relative="1" as="geometry">
            <Array as="points">
              <mxPoint x="80" y="390" />
            </Array>
          </mxGeometry>
        </mxCell>
        <mxCell id="ERtdlUXtCrWB-qyEB8RA-18" value="EC2 instance" style="outlineConnect=0;dashed=0;verticalLabelPosition=bottom;verticalAlign=top;align=center;html=1;shape=mxgraph.aws3.ec2;fillColor=#F58534;gradientColor=none;" vertex="1" parent="Ug6Q32tk084S-WFXiYjM-2">
          <mxGeometry x="60" y="480" width="46.5" height="50" as="geometry" />
        </mxCell>
        <mxCell id="ERtdlUXtCrWB-qyEB8RA-51" style="edgeStyle=orthogonalEdgeStyle;rounded=0;orthogonalLoop=1;jettySize=auto;html=1;targetPerimeterSpacing=0;" edge="1" parent="Ug6Q32tk084S-WFXiYjM-2" source="ERtdlUXtCrWB-qyEB8RA-19" target="ERtdlUXtCrWB-qyEB8RA-9">
          <mxGeometry relative="1" as="geometry">
            <Array as="points">
              <mxPoint x="413" y="390" />
            </Array>
          </mxGeometry>
        </mxCell>
        <mxCell id="ERtdlUXtCrWB-qyEB8RA-53" style="edgeStyle=orthogonalEdgeStyle;rounded=0;orthogonalLoop=1;jettySize=auto;html=1;entryX=0.5;entryY=1;entryDx=0;entryDy=0;targetPerimeterSpacing=0;" edge="1" parent="Ug6Q32tk084S-WFXiYjM-2" source="ERtdlUXtCrWB-qyEB8RA-19" target="ERtdlUXtCrWB-qyEB8RA-24">
          <mxGeometry relative="1" as="geometry">
            <Array as="points">
              <mxPoint x="406" y="420" />
              <mxPoint x="406" y="420" />
            </Array>
          </mxGeometry>
        </mxCell>
        <mxCell id="ERtdlUXtCrWB-qyEB8RA-19" value="EC2 instance" style="outlineConnect=0;dashed=0;verticalLabelPosition=bottom;verticalAlign=top;align=center;html=1;shape=mxgraph.aws3.ec2;fillColor=#F58534;gradientColor=none;" vertex="1" parent="Ug6Q32tk084S-WFXiYjM-2">
          <mxGeometry x="390" y="480" width="46.5" height="50" as="geometry" />
        </mxCell>
        <mxCell id="ERtdlUXtCrWB-qyEB8RA-20" value="" style="outlineConnect=0;dashed=0;verticalLabelPosition=bottom;verticalAlign=top;align=center;html=1;shape=mxgraph.aws3.mysql_db_instance_2;fillColor=#2E73B8;gradientColor=none;" vertex="1" parent="Ug6Q32tk084S-WFXiYjM-2">
          <mxGeometry x="205.25" y="478.5" width="49.75" height="53" as="geometry" />
        </mxCell>
        <mxCell id="ERtdlUXtCrWB-qyEB8RA-21" value="" style="outlineConnect=0;dashed=0;verticalLabelPosition=bottom;verticalAlign=top;align=center;html=1;shape=mxgraph.aws3.mysql_db_instance_2;fillColor=#2E73B8;gradientColor=none;" vertex="1" parent="Ug6Q32tk084S-WFXiYjM-2">
          <mxGeometry x="524.75" y="480" width="49.75" height="53" as="geometry" />
        </mxCell>
        <mxCell id="ERtdlUXtCrWB-qyEB8RA-30" style="edgeStyle=orthogonalEdgeStyle;rounded=0;orthogonalLoop=1;jettySize=auto;html=1;exitX=0;exitY=0.5;exitDx=0;exitDy=0;exitPerimeter=0;targetPerimeterSpacing=0;dashed=1;" edge="1" parent="Ug6Q32tk084S-WFXiYjM-2" source="ERtdlUXtCrWB-qyEB8RA-22" target="ERtdlUXtCrWB-qyEB8RA-7">
          <mxGeometry relative="1" as="geometry" />
        </mxCell>
        <mxCell id="ERtdlUXtCrWB-qyEB8RA-22" value="&lt;span style=&quot;background-color: rgb(255, 255, 255);&quot;&gt;Internet&lt;br&gt;Gateway&lt;/span&gt;" style="outlineConnect=0;dashed=0;verticalLabelPosition=bottom;verticalAlign=top;align=center;html=1;shape=mxgraph.aws3.internet_gateway;fillColor=#F58536;gradientColor=none;" vertex="1" parent="Ug6Q32tk084S-WFXiYjM-2">
          <mxGeometry x="313.88" width="52.25" height="50" as="geometry" />
        </mxCell>
        <mxCell id="ERtdlUXtCrWB-qyEB8RA-23" value="Bastion&lt;br&gt;Host" style="sketch=0;points=[[0.015,0.015,0],[0.985,0.015,0],[0.985,0.985,0],[0.015,0.985,0],[0.25,0,0],[0.5,0,0],[0.75,0,0],[1,0.25,0],[1,0.5,0],[1,0.75,0],[0.75,1,0],[0.5,1,0],[0.25,1,0],[0,0.75,0],[0,0.5,0],[0,0.25,0]];verticalLabelPosition=bottom;html=1;verticalAlign=top;aspect=fixed;align=center;pointerEvents=1;shape=mxgraph.cisco19.rect;prIcon=host_based_security;fillColor=#FAFAFA;strokeColor=#005073;" vertex="1" parent="Ug6Q32tk084S-WFXiYjM-2">
          <mxGeometry x="380" y="150" width="50" height="50" as="geometry" />
        </mxCell>
        <mxCell id="ERtdlUXtCrWB-qyEB8RA-36" style="edgeStyle=orthogonalEdgeStyle;rounded=0;orthogonalLoop=1;jettySize=auto;html=1;exitX=1;exitY=0.5;exitDx=0;exitDy=0;targetPerimeterSpacing=0;" edge="1" parent="Ug6Q32tk084S-WFXiYjM-2" source="ERtdlUXtCrWB-qyEB8RA-24" target="ERtdlUXtCrWB-qyEB8RA-8">
          <mxGeometry relative="1" as="geometry">
            <Array as="points">
              <mxPoint x="500" y="190" />
              <mxPoint x="500" y="120" />
            </Array>
          </mxGeometry>
        </mxCell>
        <mxCell id="ERtdlUXtCrWB-qyEB8RA-52" style="edgeStyle=orthogonalEdgeStyle;rounded=0;orthogonalLoop=1;jettySize=auto;html=1;targetPerimeterSpacing=0;exitX=0.502;exitY=1;exitDx=0;exitDy=0;exitPerimeter=0;" edge="1" parent="Ug6Q32tk084S-WFXiYjM-2" source="ERtdlUXtCrWB-qyEB8RA-24">
          <mxGeometry relative="1" as="geometry">
            <mxPoint x="406" y="480" as="targetPoint" />
          </mxGeometry>
        </mxCell>
        <mxCell id="ERtdlUXtCrWB-qyEB8RA-24" value="" style="rounded=1;arcSize=10;dashed=1;strokeColor=#ff0000;fillColor=none;gradientColor=none;dashPattern=8 4;strokeWidth=2;" vertex="1" parent="Ug6Q32tk084S-WFXiYjM-2">
          <mxGeometry x="366.13" y="140.5" width="79.5" height="99.5" as="geometry" />
        </mxCell>
        <mxCell id="ERtdlUXtCrWB-qyEB8RA-34" style="edgeStyle=orthogonalEdgeStyle;rounded=0;orthogonalLoop=1;jettySize=auto;html=1;dashed=1;targetPerimeterSpacing=0;" edge="1" parent="1" source="ERtdlUXtCrWB-qyEB8RA-22">
          <mxGeometry relative="1" as="geometry">
            <mxPoint x="695" y="320" as="targetPoint" />
          </mxGeometry>
        </mxCell>
        <mxCell id="ERtdlUXtCrWB-qyEB8RA-37" style="edgeStyle=orthogonalEdgeStyle;rounded=0;orthogonalLoop=1;jettySize=auto;html=1;exitX=0.5;exitY=0;exitDx=0;exitDy=0;exitPerimeter=0;targetPerimeterSpacing=0;" edge="1" parent="1" source="ERtdlUXtCrWB-qyEB8RA-16">
          <mxGeometry relative="1" as="geometry">
            <mxPoint x="665" y="350" as="targetPoint" />
            <Array as="points">
              <mxPoint x="585" y="350" />
            </Array>
          </mxGeometry>
        </mxCell>
        <mxCell id="ERtdlUXtCrWB-qyEB8RA-46" style="edgeStyle=orthogonalEdgeStyle;rounded=0;orthogonalLoop=1;jettySize=auto;html=1;dashed=1;targetPerimeterSpacing=0;" edge="1" parent="1" source="ERtdlUXtCrWB-qyEB8RA-16">
          <mxGeometry relative="1" as="geometry">
            <mxPoint x="695" y="590" as="targetPoint" />
          </mxGeometry>
        </mxCell>
        <mxCell id="ERtdlUXtCrWB-qyEB8RA-48" style="edgeStyle=orthogonalEdgeStyle;rounded=0;orthogonalLoop=1;jettySize=auto;html=1;targetPerimeterSpacing=0;" edge="1" parent="1" source="ERtdlUXtCrWB-qyEB8RA-10">
          <mxGeometry relative="1" as="geometry">
            <mxPoint x="165" y="710" as="targetPoint" />
            <Array as="points">
              <mxPoint x="165" y="620" />
            </Array>
          </mxGeometry>
        </mxCell>
      </root>
    </mxGraphModel>
  </diagram>
</mxfile>
